<svg xmlns="http://www.w3.org/2000/svg" width="400" height="180" viewBox="0 0 400 180" role="img" xmlns="http://www.w3.org/2000/svg"><style>
 text{font-family:Inter,Arial,Helvetica,sans-serif;fill:#111a3d}
 .gl{stroke:#c3cad9;stroke-width:1}
 .ax{stroke:#7d89a8;stroke-width:1.3}
 .ac{fill:none;stroke:#B08A1B;stroke-width:2.2}
 .t11{font-size:11px}.t12{font-size:12px}.t13{font-size:13px}.t15{font-size:15px}
 .tb{font-size:13px;font-weight:700}
 .tg{font-size:13px;font-weight:700;fill:#7a5f0a}
 .l{fill:none;stroke:#010080;stroke-width:2.4;stroke-linecap:round;stroke-linejoin:round}
 .w{fill:none;stroke:#010080;stroke-width:2.8;stroke-linejoin:round;stroke-linecap:round}
 .w2{fill:none;stroke:#a52a2a;stroke-width:2.6;stroke-linejoin:round;stroke-linecap:round}
 .dm{fill:none;stroke:#010080;stroke-width:1.5;stroke-dasharray:5 4}
 .dg{fill:none;stroke:#1e7a45;stroke-width:1.5;stroke-dasharray:6 4}
</style><rect width="400" height="180" fill="#ffffff"/><defs><marker id="ah" viewBox="0 0 10 10" refX="9" refY="5" markerWidth="7" markerHeight="7" orient="auto-start-reverse"><path d="M0,1 L9,5 L0,9 z" fill="#C9A227"/></marker><marker id="ahn" viewBox="0 0 10 10" refX="9" refY="5" markerWidth="7" markerHeight="7" orient="auto-start-reverse"><path d="M0,1 L9,5 L0,9 z" fill="#010080"/></marker><marker id="ahs" viewBox="0 0 10 10" refX="9" refY="5" markerWidth="7" markerHeight="7" orient="auto-start-reverse"><path d="M0,1 L9,5 L0,9 z" fill="#C9A227"/></marker><marker id="ahsb" viewBox="0 0 10 10" refX="1" refY="5" markerWidth="7" markerHeight="7" orient="auto-start-reverse"><path d="M10,1 L1,5 L10,9 z" fill="#C9A227"/></marker></defs><g transform="translate(70,34) scale(2.3)"><g fill="none" stroke="#010080" stroke-width="2.4" stroke-linecap="round" stroke-linejoin="round"><path d="M0,30 H36"/><polygon points="36,16 36,44 66,30" fill="#010080" stroke="none"/><path d="M66,16 V44"/><path d="M66,30 H100"/></g></g><text class="t15" x="34" y="150">Anode (A)</text><text class="t13" x="34" y="168">P-type &mdash; connect to +</text><text class="t15" x="262" y="150">Cathode (K)</text><text class="t13" x="262" y="168">N-type &mdash; banded end</text><text class="tb" x="52" y="88" style="font-size:20px">+</text><text class="tb" x="290" y="88" style="font-size:20px">&minus;</text><line class="ac" x1="96" y1="60" x2="250" y2="60" marker-end="url(#ahs)"/><text class="tg" x="104" y="50">conventional current (forward bias)</text><text class="t12" x="196" y="126" fill="#7a5f0a">cathode band</text></svg>