<svg class="diagram-svg" xmlns="http://www.w3.org/2000/svg" width="430" height="172" viewBox="0 0 430 172" preserveAspectRatio="xMidYMid meet" role="img" aria-label="Zener diode: Z-shaped cathode, designed for reverse breakdown"><style>
 text{font-family:Inter,Arial,Helvetica,sans-serif;fill:#111a3d}
 .gl{stroke:#c3cad9;stroke-width:1}.ax{stroke:#7d89a8;stroke-width:1.3}
 .ac{fill:none;stroke:#B08A1B;stroke-width:2.2}
 .t11{font-size:11px}.t12{font-size:12px}.t13{font-size:13px}.t15{font-size:15px}
 .tb{font-size:13px;font-weight:700}.tg{font-size:13px;font-weight:700;fill:#7a5f0a}
 .l{fill:none;stroke:#010080;stroke-width:2.4;stroke-linecap:round;stroke-linejoin:round}
 .w{fill:none;stroke:#010080;stroke-width:2.8;stroke-linejoin:round;stroke-linecap:round}
 .w2{fill:none;stroke:#a52a2a;stroke-width:2.6;stroke-linejoin:round;stroke-linecap:round}
 .dm{fill:none;stroke:#010080;stroke-width:1.5;stroke-dasharray:5 4}
 .dg{fill:none;stroke:#1e7a45;stroke-width:1.5;stroke-dasharray:6 4}
</style><rect width="430" height="172" fill="#ffffff"/><defs><marker id="ah-eee282_q07" viewBox="0 0 10 10" refX="9" refY="5" markerWidth="7" markerHeight="7" orient="auto-start-reverse"><path d="M0,1 L9,5 L0,9 z" fill="#C9A227"/></marker><marker id="ahn-eee282_q07" viewBox="0 0 10 10" refX="9" refY="5" markerWidth="7" markerHeight="7" orient="auto-start-reverse"><path d="M0,1 L9,5 L0,9 z" fill="#010080"/></marker><marker id="ahs-eee282_q07" viewBox="0 0 10 10" refX="9" refY="5" markerWidth="7" markerHeight="7" orient="auto-start-reverse"><path d="M0,1 L9,5 L0,9 z" fill="#C9A227"/></marker><marker id="ahsb-eee282_q07" viewBox="0 0 10 10" refX="1" refY="5" markerWidth="7" markerHeight="7" orient="auto-start-reverse"><path d="M10,1 L1,5 L10,9 z" fill="#C9A227"/></marker></defs><g transform="translate(34,30) scale(2.3)"><g fill="none" stroke="#010080" stroke-width="2.4" stroke-linecap="round" stroke-linejoin="round"><path d="M0,30 H36"/><polygon points="36,16 36,44 66,30" fill="#010080" stroke="none"/><path d="M62,16 L70,16 L62,44 L70,44"/><path d="M66,30 H100"/></g></g><text class="t15" x="34" y="140">Zener diode</text><text class="t13" x="286" y="58">Reverse breakdown</text><text class="t13" x="286" y="76">at Vz = constant</text><line class="ac" x1="272" y1="52" x2="272" y2="82" marker-end="url(#ahs-eee282_q07)"/><text class="t12" x="34" y="160" fill="#5b6478">Z-shaped cathode; used as a voltage reference / regulator.</text></svg>