<svg class="diagram-svg" xmlns="http://www.w3.org/2000/svg" viewBox="0 0 620 350" preserveAspectRatio="xMidYMid meet" role="img"><text class="tb" x="310" y="26" text-anchor="middle">Four-band code: Green &#183; Blue &#183; Silver &#183; Gold</text><line x1="30" y1="125" x2="70" y2="125" stroke="#010080" stroke-width="3" stroke-linecap="round"/><line x1="370" y1="125" x2="410" y2="125" stroke="#010080" stroke-width="3" stroke-linecap="round"/><rect x="70" y="70" width="300" height="110" rx="14" fill="#f2e6c8" stroke="#010080" stroke-width="2.5"/><rect x="105" y="70" width="18" height="110" rx="0" fill="#1E7A3C" stroke="none" stroke-width="0"/><rect x="160" y="70" width="18" height="110" rx="0" fill="#1B4FA0" stroke="none" stroke-width="0"/><rect x="215" y="70" width="18" height="110" rx="0" fill="#B8BCC4" stroke="none" stroke-width="0"/><rect x="325" y="70" width="18" height="110" rx="0" fill="#C9A227" stroke="none" stroke-width="0"/><text class="t11" x="220" y="200" text-anchor="middle">silver as the THIRD band means &#215;0.01, not &#215;0.1 or &#215;1</text><rect x="20" y="215" width="140" height="78" rx="8" fill="#f7f9fd" stroke="#010080" stroke-width="1.5"/><rect x="34" y="227" width="112" height="8" rx="0" fill="#1E7A3C" stroke="none" stroke-width="0"/><text class="t11" x="90" y="253" text-anchor="middle">1st band</text><text class="tb" x="90" y="271" text-anchor="middle">Green</text><text x="90" y="281" text-anchor="middle" style="font-size:16px;font-weight:700;fill:#010080">5</text><rect x="170" y="215" width="140" height="78" rx="8" fill="#f7f9fd" stroke="#010080" stroke-width="1.5"/><rect x="184" y="227" width="112" height="8" rx="0" fill="#1B4FA0" stroke="none" stroke-width="0"/><text class="t11" x="240" y="253" text-anchor="middle">2nd band</text><text class="tb" x="240" y="271" text-anchor="middle">Blue</text><text x="240" y="281" text-anchor="middle" style="font-size:16px;font-weight:700;fill:#010080">6</text><rect x="320" y="215" width="140" height="78" rx="8" fill="#f7f9fd" stroke="#010080" stroke-width="1.5"/><rect x="334" y="227" width="112" height="8" rx="0" fill="#B8BCC4" stroke="none" stroke-width="0"/><text class="t11" x="390" y="253" text-anchor="middle">3rd band</text><text class="tb" x="390" y="271" text-anchor="middle">Silver</text><text x="390" y="281" text-anchor="middle" style="font-size:16px;font-weight:700;fill:#010080">&#215;0.01</text><rect x="470" y="215" width="140" height="78" rx="8" fill="#f7f9fd" stroke="#010080" stroke-width="1.5"/><rect x="484" y="227" width="112" height="8" rx="0" fill="#C9A227" stroke="none" stroke-width="0"/><text class="t11" x="540" y="253" text-anchor="middle">4th band</text><text class="tb" x="540" y="271" text-anchor="middle">Gold</text><text x="540" y="281" text-anchor="middle" style="font-size:16px;font-weight:700;fill:#010080">&#177;5%</text><text x="310" y="330" text-anchor="middle" style="font-size:18px;font-weight:700;fill:#0B7A55">56 &#215; 0.01  =  0.56 &#937;   &#177; 5 %</text></svg>