<svg class="diagram-svg" xmlns="http://www.w3.org/2000/svg" viewBox="0 0 620 396" preserveAspectRatio="xMidYMid meet" role="img"><text class="tb" x="310" y="26" text-anchor="middle">Inside a cathode ray tube: gun &#8594; plates &#8594; screen</text><path d="M40,100 H300 L556,42 V278 L300,220 H40 Z" fill="#f7f9fd" stroke="#010080" stroke-width="2.4" stroke-linejoin="round"/><line x1="556" y1="42" x2="556" y2="278" stroke="#0B7A55" stroke-width="7" stroke-linecap="round"/><path d="M48,150 L56,170 L64,150 L72,170 L78,160" fill="none" stroke="#C62828" stroke-width="2.6" stroke-linejoin="round"/><rect x="84" y="146" width="17" height="28" rx="3" fill="#e8edf6" stroke="#010080" stroke-width="2"/><rect x="112" y="138" width="26" height="10" rx="2" fill="#010080" stroke="#010080" stroke-width="1.6"/><rect x="112" y="172" width="26" height="10" rx="2" fill="#010080" stroke="#010080" stroke-width="1.6"/><rect x="152" y="138" width="30" height="10" rx="2" fill="#010080" stroke="#010080" stroke-width="1.6"/><rect x="152" y="172" width="30" height="10" rx="2" fill="#010080" stroke="#010080" stroke-width="1.6"/><rect x="196" y="138" width="30" height="10" rx="2" fill="#010080" stroke="#010080" stroke-width="1.6"/><rect x="196" y="172" width="30" height="10" rx="2" fill="#010080" stroke="#010080" stroke-width="1.6"/><rect x="240" y="124" width="52" height="9" rx="2" fill="#010080" stroke="#010080" stroke-width="1.6"/><rect x="240" y="187" width="52" height="9" rx="2" fill="#010080" stroke="#010080" stroke-width="1.6"/><rect x="316" y="116" width="9" height="26" rx="2" fill="#010080" stroke="#010080" stroke-width="1.6"/><rect x="316" y="178" width="9" height="26" rx="2" fill="#010080" stroke="#010080" stroke-width="1.6"/><path d="M101,160 L240,160 L292,174 L552,248" fill="none" stroke="#C9A227" stroke-width="2.6" stroke-dasharray="7 5"/><circle cx="552" cy="248" r="13" fill="rgba(201,162,39,0.25)" stroke="none"/><circle cx="552" cy="248" r="6" fill="#C9A227"/><circle cx="63" cy="196" r="11" fill="#ffffff" stroke="#010080" stroke-width="2"/><text class="t12" x="63" y="200" text-anchor="middle">1</text><circle cx="92" cy="196" r="11" fill="#ffffff" stroke="#010080" stroke-width="2"/><text class="t12" x="92" y="200" text-anchor="middle">2</text><circle cx="126" cy="196" r="11" fill="#ffffff" stroke="#010080" stroke-width="2"/><text class="t12" x="126" y="200" text-anchor="middle">3</text><circle cx="167" cy="196" r="11" fill="#ffffff" stroke="#010080" stroke-width="2"/><text class="t12" x="167" y="200" text-anchor="middle">4</text><circle cx="211" cy="196" r="11" fill="#ffffff" stroke="#010080" stroke-width="2"/><text class="t12" x="211" y="200" text-anchor="middle">5</text><circle cx="266" cy="208" r="11" fill="#ffffff" stroke="#C9A227" stroke-width="2.6"/><text class="tg" x="266" y="212" text-anchor="middle">6</text><circle cx="330" cy="248" r="11" fill="#ffffff" stroke="#010080" stroke-width="2"/><text class="t12" x="330" y="252" text-anchor="middle">7</text><circle cx="556" cy="300" r="11" fill="#ffffff" stroke="#010080" stroke-width="2"/><text class="t12" x="556" y="304" text-anchor="middle">8</text><circle cx="40" cy="316" r="11" fill="#ffffff" stroke="#010080" stroke-width="2"/><text class="t12" x="40" y="320" text-anchor="middle">1</text><text class="t12" x="58" y="320" >Heater (filament)</text><circle cx="40" cy="336" r="11" fill="#ffffff" stroke="#010080" stroke-width="2"/><text class="t12" x="40" y="340" text-anchor="middle">2</text><text class="t12" x="58" y="340" >Cathode</text><circle cx="40" cy="356" r="11" fill="#ffffff" stroke="#010080" stroke-width="2"/><text class="t12" x="40" y="360" text-anchor="middle">3</text><text class="t12" x="58" y="360" >Cylinder / control grid &#8212; intensity</text><circle cx="40" cy="376" r="11" fill="#ffffff" stroke="#010080" stroke-width="2"/><text class="t12" x="40" y="380" text-anchor="middle">4</text><text class="t12" x="58" y="380" >Focusing anode</text><circle cx="340" cy="316" r="11" fill="#ffffff" stroke="#010080" stroke-width="2"/><text class="t12" x="340" y="320" text-anchor="middle">5</text><text class="t12" x="358" y="320" >Accelerating anode</text><circle cx="340" cy="336" r="11" fill="#ffffff" stroke="#C9A227" stroke-width="2.6"/><text class="tg" x="340" y="340" text-anchor="middle">6</text><text class="tg" x="358" y="340" >Y-plates &#8212; VERTICAL deflection</text><circle cx="340" cy="356" r="11" fill="#ffffff" stroke="#010080" stroke-width="2"/><text class="t12" x="340" y="360" text-anchor="middle">7</text><text class="t12" x="358" y="360" >X-plates &#8212; HORIZONTAL sweep</text><circle cx="340" cy="376" r="11" fill="#ffffff" stroke="#010080" stroke-width="2"/><text class="t12" x="340" y="380" text-anchor="middle">8</text><text class="t12" x="358" y="380" >Fluorescent screen</text></svg>