<svg class="diagram-svg" xmlns="http://www.w3.org/2000/svg" viewBox="0 0 760 500" preserveAspectRatio="xMidYMid meet" role="img"><rect x="6" y="6" width="748" height="488" rx="14" fill="#f4f7fc" stroke="#010080" stroke-width="3"/><text class="tb" x="26" y="34" >CATHODE RAY OSCILLOSCOPE (CRO)</text><text class="t11" x="734" y="34" text-anchor="end">EEE 282 &#183; Practicals II</text><line x1="26" y1="40" x2="734" y2="40" stroke="#7d89a8" stroke-width="1.2" stroke-linecap="round"/><rect x="40" y="52" width="470" height="288" rx="8" fill="#e8edf6" stroke="#010080" stroke-width="2.5"/><svg x="48" y="60" width="454" height="272" viewBox="0 0 640 320" preserveAspectRatio="xMidYMid meet"><rect x="40" y="20" width="560" height="280" fill="#fdfdff" stroke="#010080" stroke-width="2"/><line x1="96" y1="20" x2="96" y2="300" stroke="#c3cad9" stroke-width="1" stroke-linecap="round"/><line x1="152" y1="20" x2="152" y2="300" stroke="#c3cad9" stroke-width="1" stroke-linecap="round"/><line x1="208" y1="20" x2="208" y2="300" stroke="#c3cad9" stroke-width="1" stroke-linecap="round"/><line x1="264" y1="20" x2="264" y2="300" stroke="#c3cad9" stroke-width="1" stroke-linecap="round"/><line x1="320" y1="20" x2="320" y2="300" stroke="#c3cad9" stroke-width="1" stroke-linecap="round"/><line x1="376" y1="20" x2="376" y2="300" stroke="#c3cad9" stroke-width="1" stroke-linecap="round"/><line x1="432" y1="20" x2="432" y2="300" stroke="#c3cad9" stroke-width="1" stroke-linecap="round"/><line x1="488" y1="20" x2="488" y2="300" stroke="#c3cad9" stroke-width="1" stroke-linecap="round"/><line x1="544" y1="20" x2="544" y2="300" stroke="#c3cad9" stroke-width="1" stroke-linecap="round"/><line x1="40" y1="55" x2="600" y2="55" stroke="#c3cad9" stroke-width="1" stroke-linecap="round"/><line x1="40" y1="90" x2="600" y2="90" stroke="#c3cad9" stroke-width="1" stroke-linecap="round"/><line x1="40" y1="125" x2="600" y2="125" stroke="#c3cad9" stroke-width="1" stroke-linecap="round"/><line x1="40" y1="160" x2="600" y2="160" stroke="#c3cad9" stroke-width="1" stroke-linecap="round"/><line x1="40" y1="195" x2="600" y2="195" stroke="#c3cad9" stroke-width="1" stroke-linecap="round"/><line x1="40" y1="230" x2="600" y2="230" stroke="#c3cad9" stroke-width="1" stroke-linecap="round"/><line x1="40" y1="265" x2="600" y2="265" stroke="#c3cad9" stroke-width="1" stroke-linecap="round"/><line x1="40" y1="160" x2="600" y2="160" stroke="#7d89a8" stroke-width="1.3" stroke-linecap="round"/><line x1="320" y1="20" x2="320" y2="300" stroke="#7d89a8" stroke-width="1.3" stroke-linecap="round"/><line x1="51.2" y1="157" x2="51.2" y2="163" stroke="#7d89a8" stroke-width="1.3" stroke-linecap="round"/><line x1="62.4" y1="157" x2="62.4" y2="163" stroke="#7d89a8" stroke-width="1.3" stroke-linecap="round"/><line x1="73.6" y1="157" x2="73.6" y2="163" stroke="#7d89a8" stroke-width="1.3" stroke-linecap="round"/><line x1="84.8" y1="157" x2="84.8" y2="163" stroke="#7d89a8" stroke-width="1.3" stroke-linecap="round"/><line x1="107.2" y1="157" x2="107.2" y2="163" stroke="#7d89a8" stroke-width="1.3" stroke-linecap="round"/><line x1="118.4" y1="157" x2="118.4" y2="163" stroke="#7d89a8" stroke-width="1.3" stroke-linecap="round"/><line x1="129.6" y1="157" x2="129.6" y2="163" stroke="#7d89a8" stroke-width="1.3" stroke-linecap="round"/><line x1="140.8" y1="157" x2="140.8" y2="163" stroke="#7d89a8" stroke-width="1.3" stroke-linecap="round"/><line x1="163.2" y1="157" x2="163.2" y2="163" stroke="#7d89a8" stroke-width="1.3" stroke-linecap="round"/><line x1="174.4" y1="157" x2="174.4" y2="163" stroke="#7d89a8" stroke-width="1.3" stroke-linecap="round"/><line x1="185.6" y1="157" x2="185.6" y2="163" stroke="#7d89a8" stroke-width="1.3" stroke-linecap="round"/><line x1="196.8" y1="157" x2="196.8" y2="163" stroke="#7d89a8" stroke-width="1.3" stroke-linecap="round"/><line x1="219.2" y1="157" x2="219.2" y2="163" stroke="#7d89a8" stroke-width="1.3" stroke-linecap="round"/><line x1="230.4" y1="157" x2="230.4" y2="163" stroke="#7d89a8" stroke-width="1.3" stroke-linecap="round"/><line x1="241.6" y1="157" x2="241.6" y2="163" stroke="#7d89a8" stroke-width="1.3" stroke-linecap="round"/><line x1="252.8" y1="157" x2="252.8" y2="163" stroke="#7d89a8" stroke-width="1.3" stroke-linecap="round"/><line x1="275.2" y1="157" x2="275.2" y2="163" stroke="#7d89a8" stroke-width="1.3" stroke-linecap="round"/><line x1="286.4" y1="157" x2="286.4" y2="163" stroke="#7d89a8" stroke-width="1.3" stroke-linecap="round"/><line x1="297.6" y1="157" x2="297.6" y2="163" stroke="#7d89a8" stroke-width="1.3" stroke-linecap="round"/><line x1="308.8" y1="157" x2="308.8" y2="163" stroke="#7d89a8" stroke-width="1.3" stroke-linecap="round"/><line x1="331.2" y1="157" x2="331.2" y2="163" stroke="#7d89a8" stroke-width="1.3" stroke-linecap="round"/><line x1="342.4" y1="157" x2="342.4" y2="163" stroke="#7d89a8" stroke-width="1.3" stroke-linecap="round"/><line x1="353.6" y1="157" x2="353.6" y2="163" stroke="#7d89a8" stroke-width="1.3" stroke-linecap="round"/><line x1="364.8" y1="157" x2="364.8" y2="163" stroke="#7d89a8" stroke-width="1.3" stroke-linecap="round"/><line x1="387.2" y1="157" x2="387.2" y2="163" stroke="#7d89a8" stroke-width="1.3" stroke-linecap="round"/><line x1="398.4" y1="157" x2="398.4" y2="163" stroke="#7d89a8" stroke-width="1.3" stroke-linecap="round"/><line x1="409.6" y1="157" x2="409.6" y2="163" stroke="#7d89a8" stroke-width="1.3" stroke-linecap="round"/><line x1="420.8" y1="157" x2="420.8" y2="163" stroke="#7d89a8" stroke-width="1.3" stroke-linecap="round"/><line x1="443.2" y1="157" x2="443.2" y2="163" stroke="#7d89a8" stroke-width="1.3" stroke-linecap="round"/><line x1="454.4" y1="157" x2="454.4" y2="163" stroke="#7d89a8" stroke-width="1.3" stroke-linecap="round"/><line x1="465.6" y1="157" x2="465.6" y2="163" stroke="#7d89a8" stroke-width="1.3" stroke-linecap="round"/><line x1="476.8" y1="157" x2="476.8" y2="163" stroke="#7d89a8" stroke-width="1.3" stroke-linecap="round"/><line x1="499.2" y1="157" x2="499.2" y2="163" stroke="#7d89a8" stroke-width="1.3" stroke-linecap="round"/><line x1="510.4" y1="157" x2="510.4" y2="163" stroke="#7d89a8" stroke-width="1.3" stroke-linecap="round"/><line x1="521.6" y1="157" x2="521.6" y2="163" stroke="#7d89a8" stroke-width="1.3" stroke-linecap="round"/><line x1="532.8" y1="157" x2="532.8" y2="163" stroke="#7d89a8" stroke-width="1.3" stroke-linecap="round"/><line x1="555.2" y1="157" x2="555.2" y2="163" stroke="#7d89a8" stroke-width="1.3" stroke-linecap="round"/><line x1="566.4" y1="157" x2="566.4" y2="163" stroke="#7d89a8" stroke-width="1.3" stroke-linecap="round"/><line x1="577.6" y1="157" x2="577.6" y2="163" stroke="#7d89a8" stroke-width="1.3" stroke-linecap="round"/><line x1="588.8" y1="157" x2="588.8" y2="163" stroke="#7d89a8" stroke-width="1.3" stroke-linecap="round"/><line x1="317" y1="27" x2="323" y2="27" stroke="#7d89a8" stroke-width="1.3" stroke-linecap="round"/><line x1="317" y1="34" x2="323" y2="34" stroke="#7d89a8" stroke-width="1.3" stroke-linecap="round"/><line x1="317" y1="41" x2="323" y2="41" stroke="#7d89a8" stroke-width="1.3" stroke-linecap="round"/><line x1="317" y1="48" x2="323" y2="48" stroke="#7d89a8" stroke-width="1.3" stroke-linecap="round"/><line x1="317" y1="62" x2="323" y2="62" stroke="#7d89a8" stroke-width="1.3" stroke-linecap="round"/><line x1="317" y1="69" x2="323" y2="69" stroke="#7d89a8" stroke-width="1.3" stroke-linecap="round"/><line x1="317" y1="76" x2="323" y2="76" stroke="#7d89a8" stroke-width="1.3" stroke-linecap="round"/><line x1="317" y1="83" x2="323" y2="83" stroke="#7d89a8" stroke-width="1.3" stroke-linecap="round"/><line x1="317" y1="97" x2="323" y2="97" stroke="#7d89a8" stroke-width="1.3" stroke-linecap="round"/><line x1="317" y1="104" x2="323" y2="104" stroke="#7d89a8" stroke-width="1.3" stroke-linecap="round"/><line x1="317" y1="111" x2="323" y2="111" stroke="#7d89a8" stroke-width="1.3" stroke-linecap="round"/><line x1="317" y1="118" x2="323" y2="118" stroke="#7d89a8" stroke-width="1.3" stroke-linecap="round"/><line x1="317" y1="132" x2="323" y2="132" stroke="#7d89a8" stroke-width="1.3" stroke-linecap="round"/><line x1="317" y1="139" x2="323" y2="139" stroke="#7d89a8" stroke-width="1.3" stroke-linecap="round"/><line x1="317" y1="146" x2="323" y2="146" stroke="#7d89a8" stroke-width="1.3" stroke-linecap="round"/><line x1="317" y1="153" x2="323" y2="153" stroke="#7d89a8" stroke-width="1.3" stroke-linecap="round"/><line x1="317" y1="167" x2="323" y2="167" stroke="#7d89a8" stroke-width="1.3" stroke-linecap="round"/><line x1="317" y1="174" x2="323" y2="174" stroke="#7d89a8" stroke-width="1.3" stroke-linecap="round"/><line x1="317" y1="181" x2="323" y2="181" stroke="#7d89a8" stroke-width="1.3" stroke-linecap="round"/><line x1="317" y1="188" x2="323" y2="188" stroke="#7d89a8" stroke-width="1.3" stroke-linecap="round"/><line x1="317" y1="202" x2="323" y2="202" stroke="#7d89a8" stroke-width="1.3" stroke-linecap="round"/><line x1="317" y1="209" x2="323" y2="209" stroke="#7d89a8" stroke-width="1.3" stroke-linecap="round"/><line x1="317" y1="216" x2="323" y2="216" stroke="#7d89a8" stroke-width="1.3" stroke-linecap="round"/><line x1="317" y1="223" x2="323" y2="223" stroke="#7d89a8" stroke-width="1.3" stroke-linecap="round"/><line x1="317" y1="237" x2="323" y2="237" stroke="#7d89a8" stroke-width="1.3" stroke-linecap="round"/><line x1="317" y1="244" x2="323" y2="244" stroke="#7d89a8" stroke-width="1.3" stroke-linecap="round"/><line x1="317" y1="251" x2="323" y2="251" stroke="#7d89a8" stroke-width="1.3" stroke-linecap="round"/><line x1="317" y1="258" x2="323" y2="258" stroke="#7d89a8" stroke-width="1.3" stroke-linecap="round"/><line x1="317" y1="272" x2="323" y2="272" stroke="#7d89a8" stroke-width="1.3" stroke-linecap="round"/><line x1="317" y1="279" x2="323" y2="279" stroke="#7d89a8" stroke-width="1.3" stroke-linecap="round"/><line x1="317" y1="286" x2="323" y2="286" stroke="#7d89a8" stroke-width="1.3" stroke-linecap="round"/><line x1="317" y1="293" x2="323" y2="293" stroke="#7d89a8" stroke-width="1.3" stroke-linecap="round"/><path class="w" d="M40.0 160.0 L41.9 155.6 L43.7 151.2 L45.6 146.8 L47.5 142.5 L49.3 138.2 L51.2 133.9 L53.1 129.7 L54.9 125.5 L56.8 121.3 L58.7 117.3 L60.5 113.3 L62.4 109.4 L64.3 105.6 L66.1 101.9 L68.0 98.3 L69.9 94.8 L71.7 91.4 L73.6 88.1 L75.5 85.0 L77.3 82.0 L79.2 79.1 L81.1 76.4 L82.9 73.8 L84.8 71.3 L86.7 69.1 L88.5 66.9 L90.4 65.0 L92.3 63.2 L94.1 61.6 L96.0 60.1 L97.9 58.9 L99.7 57.8 L101.6 56.9 L103.5 56.1 L105.3 55.6 L107.2 55.2 L109.1 55.0 L110.9 55.0 L112.8 55.2 L114.7 55.6 L116.5 56.1 L118.4 56.9 L120.3 57.8 L122.1 58.9 L124.0 60.1 L125.9 61.6 L127.7 63.2 L129.6 65.0 L131.5 66.9 L133.3 69.1 L135.2 71.3 L137.1 73.8 L138.9 76.4 L140.8 79.1 L142.7 82.0 L144.5 85.0 L146.4 88.1 L148.3 91.4 L150.1 94.8 L152.0 98.3 L153.9 101.9 L155.7 105.6 L157.6 109.4 L159.5 113.3 L161.3 117.3 L163.2 121.3 L165.1 125.5 L166.9 129.7 L168.8 133.9 L170.7 138.2 L172.5 142.5 L174.4 146.8 L176.3 151.2 L178.1 155.6 L180.0 160.0 L181.9 164.4 L183.7 168.8 L185.6 173.2 L187.5 177.5 L189.3 181.8 L191.2 186.1 L193.1 190.3 L194.9 194.5 L196.8 198.7 L198.7 202.7 L200.5 206.7 L202.4 210.6 L204.3 214.4 L206.1 218.1 L208.0 221.7 L209.9 225.2 L211.7 228.6 L213.6 231.9 L215.5 235.0 L217.3 238.0 L219.2 240.9 L221.1 243.6 L222.9 246.2 L224.8 248.7 L226.7 250.9 L228.5 253.1 L230.4 255.0 L232.3 256.8 L234.1 258.4 L236.0 259.9 L237.9 261.1 L239.7 262.2 L241.6 263.1 L243.5 263.9 L245.3 264.4 L247.2 264.8 L249.1 265.0 L250.9 265.0 L252.8 264.8 L254.7 264.4 L256.5 263.9 L258.4 263.1 L260.3 262.2 L262.1 261.1 L264.0 259.9 L265.9 258.4 L267.7 256.8 L269.6 255.0 L271.5 253.1 L273.3 250.9 L275.2 248.7 L277.1 246.2 L278.9 243.6 L280.8 240.9 L282.7 238.0 L284.5 235.0 L286.4 231.9 L288.3 228.6 L290.1 225.2 L292.0 221.7 L293.9 218.1 L295.7 214.4 L297.6 210.6 L299.5 206.7 L301.3 202.7 L303.2 198.7 L305.1 194.5 L306.9 190.3 L308.8 186.1 L310.7 181.8 L312.5 177.5 L314.4 173.2 L316.3 168.8 L318.1 164.4 L320.0 160.0 L321.9 155.6 L323.7 151.2 L325.6 146.8 L327.5 142.5 L329.3 138.2 L331.2 133.9 L333.1 129.7 L334.9 125.5 L336.8 121.3 L338.7 117.3 L340.5 113.3 L342.4 109.4 L344.3 105.6 L346.1 101.9 L348.0 98.3 L349.9 94.8 L351.7 91.4 L353.6 88.1 L355.5 85.0 L357.3 82.0 L359.2 79.1 L361.1 76.4 L362.9 73.8 L364.8 71.3 L366.7 69.1 L368.5 66.9 L370.4 65.0 L372.3 63.2 L374.1 61.6 L376.0 60.1 L377.9 58.9 L379.7 57.8 L381.6 56.9 L383.5 56.1 L385.3 55.6 L387.2 55.2 L389.1 55.0 L390.9 55.0 L392.8 55.2 L394.7 55.6 L396.5 56.1 L398.4 56.9 L400.3 57.8 L402.1 58.9 L404.0 60.1 L405.9 61.6 L407.7 63.2 L409.6 65.0 L411.5 66.9 L413.3 69.1 L415.2 71.3 L417.1 73.8 L418.9 76.4 L420.8 79.1 L422.7 82.0 L424.5 85.0 L426.4 88.1 L428.3 91.4 L430.1 94.8 L432.0 98.3 L433.9 101.9 L435.7 105.6 L437.6 109.4 L439.5 113.3 L441.3 117.3 L443.2 121.3 L445.1 125.5 L446.9 129.7 L448.8 133.9 L450.7 138.2 L452.5 142.5 L454.4 146.8 L456.3 151.2 L458.1 155.6 L460.0 160.0 L461.9 164.4 L463.7 168.8 L465.6 173.2 L467.5 177.5 L469.3 181.8 L471.2 186.1 L473.1 190.3 L474.9 194.5 L476.8 198.7 L478.7 202.7 L480.5 206.7 L482.4 210.6 L484.3 214.4 L486.1 218.1 L488.0 221.7 L489.9 225.2 L491.7 228.6 L493.6 231.9 L495.5 235.0 L497.3 238.0 L499.2 240.9 L501.1 243.6 L502.9 246.2 L504.8 248.7 L506.7 250.9 L508.5 253.1 L510.4 255.0 L512.3 256.8 L514.1 258.4 L516.0 259.9 L517.9 261.1 L519.7 262.2 L521.6 263.1 L523.5 263.9 L525.3 264.4 L527.2 264.8 L529.1 265.0 L530.9 265.0 L532.8 264.8 L534.7 264.4 L536.5 263.9 L538.4 263.1 L540.3 262.2 L542.1 261.1 L544.0 259.9 L545.9 258.4 L547.7 256.8 L549.6 255.0 L551.5 253.1 L553.3 250.9 L555.2 248.7 L557.1 246.2 L558.9 243.6 L560.8 240.9 L562.7 238.0 L564.5 235.0 L566.4 231.9 L568.3 228.6 L570.1 225.2 L572.0 221.7 L573.9 218.1 L575.7 214.4 L577.6 210.6 L579.5 206.7 L581.3 202.7 L583.2 198.7 L585.1 194.5 L586.9 190.3 L588.8 186.1 L590.7 181.8 L592.5 177.5 L594.4 173.2 L596.3 168.8 L598.1 164.4 L600.0 160.0"/><line x1="24" y1="55" x2="616" y2="55" stroke="#C9A227" stroke-width="1.4" stroke-linecap="round" stroke-dasharray="5 4"/><line x1="24" y1="265" x2="616" y2="265" stroke="#C9A227" stroke-width="1.4" stroke-linecap="round" stroke-dasharray="5 4"/><line x1="624" y1="55" x2="624" y2="265" stroke="#C9A227" stroke-width="1.8" stroke-linecap="round"/><line x1="618" y1="55" x2="630" y2="55" stroke="#C9A227" stroke-width="1.8" stroke-linecap="round"/><line x1="618" y1="265" x2="630" y2="265" stroke="#C9A227" stroke-width="1.8" stroke-linecap="round"/><text class="tg" x="626" y="43" text-anchor="end">Vp-p = 6 div</text><text class="t13" x="50" y="43" >Vp = +15 V</text><text class="t13" x="50" y="289" >Vp = &#8722;15 V</text><text class="t13" x="320" y="36" text-anchor="middle">6 div &#215; 5 V/div = 30 V peak-to-peak &#8594; Vp = 15 V</text></svg><text class="tb" x="530" y="78" >VERTICAL</text><circle cx="596" cy="118" r="26" fill="#ffffff" stroke="#010080" stroke-width="2.2"/><line x1="580.4115427318801" y1="109" x2="576.0814157129579" y2="106.5" stroke="#7d89a8" stroke-width="1.4" stroke-linecap="round"/><line x1="587" y1="102.4115427318801" x2="584.5" y2="98.0814157129579" stroke="#7d89a8" stroke-width="1.4" stroke-linecap="round"/><line x1="596" y1="100" x2="596" y2="95" stroke="#7d89a8" stroke-width="1.4" stroke-linecap="round"/><line x1="605" y1="102.4115427318801" x2="607.5" y2="98.08141571295792" stroke="#7d89a8" stroke-width="1.4" stroke-linecap="round"/><line x1="611.5884572681199" y1="109" x2="615.9185842870421" y2="106.5" stroke="#7d89a8" stroke-width="1.4" stroke-linecap="round"/><line x1="614" y1="118" x2="619" y2="118" stroke="#7d89a8" stroke-width="1.4" stroke-linecap="round"/><line x1="611.5884572681199" y1="127" x2="615.9185842870421" y2="129.5" stroke="#7d89a8" stroke-width="1.4" stroke-linecap="round"/><line x1="605" y1="133.5884572681199" x2="607.5" y2="137.91858428704208" stroke="#7d89a8" stroke-width="1.4" stroke-linecap="round"/><line x1="596" y1="136" x2="596" y2="141" stroke="#7d89a8" stroke-width="1.4" stroke-linecap="round"/><line x1="587" y1="133.5884572681199" x2="584.5" y2="137.91858428704208" stroke="#7d89a8" stroke-width="1.4" stroke-linecap="round"/><line x1="580.4115427318801" y1="127" x2="576.0814157129579" y2="129.5" stroke="#7d89a8" stroke-width="1.4" stroke-linecap="round"/><line x1="578" y1="118" x2="573" y2="118" stroke="#7d89a8" stroke-width="1.4" stroke-linecap="round"/><line x1="596" y1="118" x2="581.4451555807394" y2="105.78703541595576" stroke="#010080" stroke-width="3" stroke-linecap="round"/><circle cx="596" cy="118" r="3.2" fill="#010080"/><text class="tb" x="596" y="161" text-anchor="middle">POSITION</text><rect x="652" y="78" width="76" height="108" rx="10" fill="rgba(201,162,39,0.20)" stroke="#C9A227" stroke-width="2"/><circle cx="690" cy="118" r="26" fill="#ffffff" stroke="#010080" stroke-width="2.2"/><line x1="674.4115427318801" y1="109" x2="670.0814157129579" y2="106.5" stroke="#7d89a8" stroke-width="1.4" stroke-linecap="round"/><line x1="681" y1="102.4115427318801" x2="678.5" y2="98.0814157129579" stroke="#7d89a8" stroke-width="1.4" stroke-linecap="round"/><line x1="690" y1="100" x2="690" y2="95" stroke="#7d89a8" stroke-width="1.4" stroke-linecap="round"/><line x1="699" y1="102.4115427318801" x2="701.5" y2="98.08141571295792" stroke="#7d89a8" stroke-width="1.4" stroke-linecap="round"/><line x1="705.5884572681199" y1="109" x2="709.9185842870421" y2="106.5" stroke="#7d89a8" stroke-width="1.4" stroke-linecap="round"/><line x1="708" y1="118" x2="713" y2="118" stroke="#7d89a8" stroke-width="1.4" stroke-linecap="round"/><line x1="705.5884572681199" y1="127" x2="709.9185842870421" y2="129.5" stroke="#7d89a8" stroke-width="1.4" stroke-linecap="round"/><line x1="699" y1="133.5884572681199" x2="701.5" y2="137.91858428704208" stroke="#7d89a8" stroke-width="1.4" stroke-linecap="round"/><line x1="690" y1="136" x2="690" y2="141" stroke="#7d89a8" stroke-width="1.4" stroke-linecap="round"/><line x1="681" y1="133.5884572681199" x2="678.5" y2="137.91858428704208" stroke="#7d89a8" stroke-width="1.4" stroke-linecap="round"/><line x1="674.4115427318801" y1="127" x2="670.0814157129579" y2="129.5" stroke="#7d89a8" stroke-width="1.4" stroke-linecap="round"/><line x1="672" y1="118" x2="667" y2="118" stroke="#7d89a8" stroke-width="1.4" stroke-linecap="round"/><line x1="690" y1="118" x2="675.4451555807394" y2="105.78703541595576" stroke="#C9A227" stroke-width="3" stroke-linecap="round"/><circle cx="690" cy="118" r="3.2" fill="#010080"/><text class="tg" x="690" y="161" text-anchor="middle">VOLTS/DIV</text><text class="t11" x="690" y="176" text-anchor="middle">5 V/div</text><text class="tg" x="690" y="191" text-anchor="middle">&#9666; asked here</text><text class="tb" x="530" y="190" >HORIZONTAL</text><circle cx="596" cy="230" r="26" fill="#ffffff" stroke="#010080" stroke-width="2.2"/><line x1="580.4115427318801" y1="221" x2="576.0814157129579" y2="218.5" stroke="#7d89a8" stroke-width="1.4" stroke-linecap="round"/><line x1="587" y1="214.4115427318801" x2="584.5" y2="210.08141571295792" stroke="#7d89a8" stroke-width="1.4" stroke-linecap="round"/><line x1="596" y1="212" x2="596" y2="207" stroke="#7d89a8" stroke-width="1.4" stroke-linecap="round"/><line x1="605" y1="214.4115427318801" x2="607.5" y2="210.08141571295792" stroke="#7d89a8" stroke-width="1.4" stroke-linecap="round"/><line x1="611.5884572681199" y1="221" x2="615.9185842870421" y2="218.5" stroke="#7d89a8" stroke-width="1.4" stroke-linecap="round"/><line x1="614" y1="230" x2="619" y2="230" stroke="#7d89a8" stroke-width="1.4" stroke-linecap="round"/><line x1="611.5884572681199" y1="239" x2="615.9185842870421" y2="241.5" stroke="#7d89a8" stroke-width="1.4" stroke-linecap="round"/><line x1="605" y1="245.5884572681199" x2="607.5" y2="249.91858428704208" stroke="#7d89a8" stroke-width="1.4" stroke-linecap="round"/><line x1="596" y1="248" x2="596" y2="253" stroke="#7d89a8" stroke-width="1.4" stroke-linecap="round"/><line x1="587" y1="245.5884572681199" x2="584.5" y2="249.91858428704208" stroke="#7d89a8" stroke-width="1.4" stroke-linecap="round"/><line x1="580.4115427318801" y1="239" x2="576.0814157129579" y2="241.5" stroke="#7d89a8" stroke-width="1.4" stroke-linecap="round"/><line x1="578" y1="230" x2="573" y2="230" stroke="#7d89a8" stroke-width="1.4" stroke-linecap="round"/><line x1="596" y1="230" x2="581.4451555807394" y2="217.78703541595576" stroke="#010080" stroke-width="3" stroke-linecap="round"/><circle cx="596" cy="230" r="3.2" fill="#010080"/><text class="tb" x="596" y="273" text-anchor="middle">POSITION</text><circle cx="690" cy="230" r="26" fill="#ffffff" stroke="#010080" stroke-width="2.2"/><line x1="674.4115427318801" y1="221" x2="670.0814157129579" y2="218.5" stroke="#7d89a8" stroke-width="1.4" stroke-linecap="round"/><line x1="681" y1="214.4115427318801" x2="678.5" y2="210.08141571295792" stroke="#7d89a8" stroke-width="1.4" stroke-linecap="round"/><line x1="690" y1="212" x2="690" y2="207" stroke="#7d89a8" stroke-width="1.4" stroke-linecap="round"/><line x1="699" y1="214.4115427318801" x2="701.5" y2="210.08141571295792" stroke="#7d89a8" stroke-width="1.4" stroke-linecap="round"/><line x1="705.5884572681199" y1="221" x2="709.9185842870421" y2="218.5" stroke="#7d89a8" stroke-width="1.4" stroke-linecap="round"/><line x1="708" y1="230" x2="713" y2="230" stroke="#7d89a8" stroke-width="1.4" stroke-linecap="round"/><line x1="705.5884572681199" y1="239" x2="709.9185842870421" y2="241.5" stroke="#7d89a8" stroke-width="1.4" stroke-linecap="round"/><line x1="699" y1="245.5884572681199" x2="701.5" y2="249.91858428704208" stroke="#7d89a8" stroke-width="1.4" stroke-linecap="round"/><line x1="690" y1="248" x2="690" y2="253" stroke="#7d89a8" stroke-width="1.4" stroke-linecap="round"/><line x1="681" y1="245.5884572681199" x2="678.5" y2="249.91858428704208" stroke="#7d89a8" stroke-width="1.4" stroke-linecap="round"/><line x1="674.4115427318801" y1="239" x2="670.0814157129579" y2="241.5" stroke="#7d89a8" stroke-width="1.4" stroke-linecap="round"/><line x1="672" y1="230" x2="667" y2="230" stroke="#7d89a8" stroke-width="1.4" stroke-linecap="round"/><line x1="690" y1="230" x2="675.4451555807394" y2="217.78703541595576" stroke="#010080" stroke-width="3" stroke-linecap="round"/><circle cx="690" cy="230" r="3.2" fill="#010080"/><text class="tb" x="690" y="273" text-anchor="middle">TIME/DIV</text><text class="t11" x="690" y="288" text-anchor="middle">2 ms/div</text><text class="tb" x="530" y="300" >TRIGGER</text><circle cx="596" cy="340" r="24" fill="#ffffff" stroke="#010080" stroke-width="2.2"/><line x1="582.143593539449" y1="332" x2="577.8134665205268" y2="329.5" stroke="#7d89a8" stroke-width="1.4" stroke-linecap="round"/><line x1="588" y1="326.143593539449" x2="585.5" y2="321.8134665205268" stroke="#7d89a8" stroke-width="1.4" stroke-linecap="round"/><line x1="596" y1="324" x2="596" y2="319" stroke="#7d89a8" stroke-width="1.4" stroke-linecap="round"/><line x1="604" y1="326.143593539449" x2="606.5" y2="321.8134665205268" stroke="#7d89a8" stroke-width="1.4" stroke-linecap="round"/><line x1="609.856406460551" y1="332" x2="614.1865334794732" y2="329.5" stroke="#7d89a8" stroke-width="1.4" stroke-linecap="round"/><line x1="612" y1="340" x2="617" y2="340" stroke="#7d89a8" stroke-width="1.4" stroke-linecap="round"/><line x1="609.856406460551" y1="348" x2="614.1865334794732" y2="350.5" stroke="#7d89a8" stroke-width="1.4" stroke-linecap="round"/><line x1="604" y1="353.856406460551" x2="606.5" y2="358.1865334794732" stroke="#7d89a8" stroke-width="1.4" stroke-linecap="round"/><line x1="596" y1="356" x2="596" y2="361" stroke="#7d89a8" stroke-width="1.4" stroke-linecap="round"/><line x1="588" y1="353.856406460551" x2="585.5" y2="358.1865334794732" stroke="#7d89a8" stroke-width="1.4" stroke-linecap="round"/><line x1="582.143593539449" y1="348" x2="577.8134665205268" y2="350.5" stroke="#7d89a8" stroke-width="1.4" stroke-linecap="round"/><line x1="580" y1="340" x2="575" y2="340" stroke="#7d89a8" stroke-width="1.4" stroke-linecap="round"/><line x1="596" y1="340" x2="582.9772444669774" y2="329.07261063532883" stroke="#010080" stroke-width="3" stroke-linecap="round"/><circle cx="596" cy="340" r="3.2" fill="#010080"/><text class="tb" x="596" y="381" text-anchor="middle">LEVEL</text><circle cx="690" cy="340" r="24" fill="#ffffff" stroke="#010080" stroke-width="2.2"/><line x1="676.143593539449" y1="332" x2="671.8134665205268" y2="329.5" stroke="#7d89a8" stroke-width="1.4" stroke-linecap="round"/><line x1="682" y1="326.143593539449" x2="679.5" y2="321.8134665205268" stroke="#7d89a8" stroke-width="1.4" stroke-linecap="round"/><line x1="690" y1="324" x2="690" y2="319" stroke="#7d89a8" stroke-width="1.4" stroke-linecap="round"/><line x1="698" y1="326.143593539449" x2="700.5" y2="321.8134665205268" stroke="#7d89a8" stroke-width="1.4" stroke-linecap="round"/><line x1="703.856406460551" y1="332" x2="708.1865334794732" y2="329.5" stroke="#7d89a8" stroke-width="1.4" stroke-linecap="round"/><line x1="706" y1="340" x2="711" y2="340" stroke="#7d89a8" stroke-width="1.4" stroke-linecap="round"/><line x1="703.856406460551" y1="348" x2="708.1865334794732" y2="350.5" stroke="#7d89a8" stroke-width="1.4" stroke-linecap="round"/><line x1="698" y1="353.856406460551" x2="700.5" y2="358.1865334794732" stroke="#7d89a8" stroke-width="1.4" stroke-linecap="round"/><line x1="690" y1="356" x2="690" y2="361" stroke="#7d89a8" stroke-width="1.4" stroke-linecap="round"/><line x1="682" y1="353.856406460551" x2="679.5" y2="358.1865334794732" stroke="#7d89a8" stroke-width="1.4" stroke-linecap="round"/><line x1="676.143593539449" y1="348" x2="671.8134665205268" y2="350.5" stroke="#7d89a8" stroke-width="1.4" stroke-linecap="round"/><line x1="674" y1="340" x2="669" y2="340" stroke="#7d89a8" stroke-width="1.4" stroke-linecap="round"/><line x1="690" y1="340" x2="676.9772444669774" y2="329.07261063532883" stroke="#010080" stroke-width="3" stroke-linecap="round"/><circle cx="690" cy="340" r="3.2" fill="#010080"/><text class="tb" x="690" y="381" text-anchor="middle">SOURCE</text><text class="t11" x="690" y="396" text-anchor="middle">CH1</text><text class="tb" x="530" y="400" >DISPLAY</text><circle cx="596" cy="440" r="22" fill="#ffffff" stroke="#010080" stroke-width="2.2"/><line x1="583.8756443470179" y1="433" x2="579.5455173280957" y2="430.5" stroke="#7d89a8" stroke-width="1.4" stroke-linecap="round"/><line x1="589" y1="427.87564434701784" x2="586.5" y2="423.5455173280957" stroke="#7d89a8" stroke-width="1.4" stroke-linecap="round"/><line x1="596" y1="426" x2="596" y2="421" stroke="#7d89a8" stroke-width="1.4" stroke-linecap="round"/><line x1="603" y1="427.87564434701784" x2="605.5" y2="423.5455173280957" stroke="#7d89a8" stroke-width="1.4" stroke-linecap="round"/><line x1="608.1243556529821" y1="433" x2="612.4544826719043" y2="430.5" stroke="#7d89a8" stroke-width="1.4" stroke-linecap="round"/><line x1="610" y1="440" x2="615" y2="440" stroke="#7d89a8" stroke-width="1.4" stroke-linecap="round"/><line x1="608.1243556529821" y1="447" x2="612.4544826719043" y2="449.5" stroke="#7d89a8" stroke-width="1.4" stroke-linecap="round"/><line x1="603" y1="452.12435565298216" x2="605.5" y2="456.4544826719043" stroke="#7d89a8" stroke-width="1.4" stroke-linecap="round"/><line x1="596" y1="454" x2="596" y2="459" stroke="#7d89a8" stroke-width="1.4" stroke-linecap="round"/><line x1="589" y1="452.12435565298216" x2="586.5" y2="456.4544826719043" stroke="#7d89a8" stroke-width="1.4" stroke-linecap="round"/><line x1="583.8756443470179" y1="447" x2="579.5455173280957" y2="449.5" stroke="#7d89a8" stroke-width="1.4" stroke-linecap="round"/><line x1="582" y1="440" x2="577" y2="440" stroke="#7d89a8" stroke-width="1.4" stroke-linecap="round"/><line x1="596" y1="440" x2="596" y2="425" stroke="#010080" stroke-width="3" stroke-linecap="round"/><circle cx="596" cy="440" r="3.2" fill="#010080"/><text class="tb" x="596" y="479" text-anchor="middle">INTENSITY</text><circle cx="690" cy="440" r="22" fill="#ffffff" stroke="#010080" stroke-width="2.2"/><line x1="677.8756443470179" y1="433" x2="673.5455173280957" y2="430.5" stroke="#7d89a8" stroke-width="1.4" stroke-linecap="round"/><line x1="683" y1="427.87564434701784" x2="680.5" y2="423.5455173280957" stroke="#7d89a8" stroke-width="1.4" stroke-linecap="round"/><line x1="690" y1="426" x2="690" y2="421" stroke="#7d89a8" stroke-width="1.4" stroke-linecap="round"/><line x1="697" y1="427.87564434701784" x2="699.5" y2="423.5455173280957" stroke="#7d89a8" stroke-width="1.4" stroke-linecap="round"/><line x1="702.1243556529821" y1="433" x2="706.4544826719043" y2="430.5" stroke="#7d89a8" stroke-width="1.4" stroke-linecap="round"/><line x1="704" y1="440" x2="709" y2="440" stroke="#7d89a8" stroke-width="1.4" stroke-linecap="round"/><line x1="702.1243556529821" y1="447" x2="706.4544826719043" y2="449.5" stroke="#7d89a8" stroke-width="1.4" stroke-linecap="round"/><line x1="697" y1="452.12435565298216" x2="699.5" y2="456.4544826719043" stroke="#7d89a8" stroke-width="1.4" stroke-linecap="round"/><line x1="690" y1="454" x2="690" y2="459" stroke="#7d89a8" stroke-width="1.4" stroke-linecap="round"/><line x1="683" y1="452.12435565298216" x2="680.5" y2="456.4544826719043" stroke="#7d89a8" stroke-width="1.4" stroke-linecap="round"/><line x1="677.8756443470179" y1="447" x2="673.5455173280957" y2="449.5" stroke="#7d89a8" stroke-width="1.4" stroke-linecap="round"/><line x1="676" y1="440" x2="671" y2="440" stroke="#7d89a8" stroke-width="1.4" stroke-linecap="round"/><line x1="690" y1="440" x2="690" y2="425" stroke="#010080" stroke-width="3" stroke-linecap="round"/><circle cx="690" cy="440" r="3.2" fill="#010080"/><text class="tb" x="690" y="479" text-anchor="middle">FOCUS</text><line x1="40" y1="362" x2="510" y2="362" stroke="#c3cad9" stroke-width="1.2" stroke-linecap="round"/><circle cx="96" cy="412" r="17" fill="#ffffff" stroke="#010080" stroke-width="2.2"/><circle cx="96" cy="412" r="6" fill="#010080"/><text class="tb" x="96" y="446" text-anchor="middle">CH1</text><rect x="150" y="380" width="92" height="74" rx="8" fill="#ffffff" stroke="#010080" stroke-width="2"/><text class="tb" x="196" y="372" text-anchor="middle">COUPLING</text><rect x="156" y="387" width="80" height="19" rx="5" fill="rgba(201,162,39,0.22)" stroke="#C9A227" stroke-width="1.8"/><text class="tg" x="164" y="400" >DC</text><text class="t12" x="164" y="420" >AC</text><text class="t12" x="164" y="440" >GND</text><line x1="140" y1="395" x2="148" y2="395" stroke="#C9A227" stroke-width="3" stroke-linecap="round"/><circle cx="330" cy="412" r="17" fill="#ffffff" stroke="#010080" stroke-width="2.2"/><circle cx="330" cy="412" r="6" fill="#010080"/><text class="tb" x="330" y="446" text-anchor="middle">CH2</text><rect x="384" y="380" width="92" height="74" rx="8" fill="#ffffff" stroke="#010080" stroke-width="2"/><text class="tb" x="430" y="372" text-anchor="middle">COUPLING</text><text class="t12" x="398" y="400" >DC</text><text class="t12" x="398" y="420" >AC</text><rect x="390" y="427" width="80" height="19" rx="5" fill="rgba(201,162,39,0.22)" stroke="#C9A227" stroke-width="1.8"/><text class="tg" x="398" y="440" >GND</text><line x1="374" y1="435" x2="382" y2="435" stroke="#C9A227" stroke-width="3" stroke-linecap="round"/><text class="t12" x="40" y="466" >Vp-p = 6 div &#215; 5 V/div = 30 V, and the peak is half of that: Vp = 30 / 2 = 15 V.</text><text class="t10" x="40" y="488" >CH1/CH2 = channel 1 / channel 2   &#183;   DC = direct current   &#183;   AC = alternating current   &#183;   GND = ground (0 V reference)</text></svg>